<svg xmlns="http://www.w3.org/2000/svg" xmlns:xlink="http://www.w3.org/1999/xlink" width="559.83" height="113.956" viewBox="0 0 2799.15 569.782">
  <metadata><?xpacket begin="﻿" id="W5M0MpCehiHzreSzNTczkc9d"?>
<x:xmpmeta xmlns:x="adobe:ns:meta/" x:xmptk="Adobe XMP Core 5.6-c138 79.159824, 2016/09/14-01:09:01        ">
   <rdf:RDF xmlns:rdf="http://www.w3.org/1999/02/22-rdf-syntax-ns#">
      <rdf:Description rdf:about=""/>
   </rdf:RDF>
</x:xmpmeta>
                                                                                                    
                                                                                                    
                                                                                                    
                                                                                                    
                                                                                                    
                                                                                                    
                                                                                                    
                                                                                                    
                                                                                                    
                                                                                                    
                                                                                                    
                                                                                                    
                                                                                                    
                                                                                                    
                                                                                                    
                                                                                                    
                                                                                                    
                                                                                                    
                                                                                                    
                                                                                                    
                           
<?xpacket end="w"?></metadata>
<defs>
    <style>
      .cls-1 {
        fill-rule: evenodd;
        filter: url(#filter);
      }
    </style>
    <filter id="filter" x="1157.38" y="369.156" width="2799.15" height="569.782" filterUnits="userSpaceOnUse">
      <feFlood result="flood" flood-color="#fff1d9"/>
      <feComposite result="composite" operator="in" in2="SourceGraphic"/>
      <feBlend result="blend" in2="SourceGraphic"/>
    </filter>
  </defs>
  <path id="drone_Arena" data-name="drone Arena" class="cls-1" d="M1500.65,605.474V465.622a88.742,88.742,0,0,0-3.24-23.917,92.634,92.634,0,0,0-27.56-45c-20.67-17.026-51.47-25.944-92.81-25.944H1157.39V695.872h222.49c25.94,0,49.45-4.054,70.11-11.756,15.4-7.3,27.16-16.62,35.67-28.376C1495.79,641.552,1500.65,624.932,1500.65,605.474Zm-56.73-137.015V602.231c0,8.108-1.63,15-5.27,19.864-3.25,4.459-8.51,8.512-16.62,11.35-12.16,4.459-26.34,6.486-42.15,6.486H1214.12V426.706h162.92c23.51,0,40.94,4.054,51.88,11.35a36.4,36.4,0,0,1,13.37,19.864C1443.51,461.973,1444.32,465.622,1443.92,468.459ZM1888.9,598.178c0-19.458-5.68-36.078-17.03-50.266a142.388,142.388,0,0,0-13.37-13.783,85.39,85.39,0,0,0,17.43-16.62c11.75-15,17.83-32.43,17.83-52.293,0-20.268-6.08-37.7-17.83-52.7-9.32-11.756-22.29-21.079-38.5-27.971-15.81-6.891-36.88-11.35-63.63-12.566H1552.11v323.08h56.74V564.532h162.11c15.4,0.811,25.94,3.243,32.02,6.891,19.05,10.54,28.77,21.08,28.77,30.4v93.235h57.15V598.178ZM1837.02,464c0,12.972-9.73,23.917-28.77,32.835a112.125,112.125,0,0,1-37.29,8.513H1608.85v-81.48h162.11a118.694,118.694,0,0,1,38.1,8.513Q1837.02,444.543,1837.02,464Zm107.79,138.637c0,20.268,5.67,37.7,16.21,52.293,8.92,12.161,21.48,21.89,37.29,28.781l0.81,0.4h0.4c23.91,7.3,49.85,10.945,77.41,10.945h123.2c51.47,0,87.14-8.918,107.4-26.754,13.38-12.161,21.48-27.16,25.54-45a87.515,87.515,0,0,0,2.02-22.7V466.027c0-21.485-5.67-40.132-17.43-55.13-9.72-11.756-23.1-21.485-40.52-28.376h-0.41l-1.62-.406-0.81-.405a466.863,466.863,0,0,0-95.64-9.729h-77.41c-64.85,0-107.81,8.513-128.88,26.349a87.591,87.591,0,0,0-25.13,44.591,76.531,76.531,0,0,0-2.43,23.917v135.8Zm331.92,6.891a33.414,33.414,0,0,1-11.75,18.242c-11.75,7.7-33.23,11.35-64.85,11.35h-123.6a188.665,188.665,0,0,1-47.83-6.08c-9.72-3.243-16.21-7.3-20.26-12.162a36.53,36.53,0,0,1-6.49-21.484l0.41-130.935v-0.811a34.489,34.489,0,0,1,1.62-9.728c2.43-8.108,6.49-14.188,12.97-19.053,12.16-7.3,40.12-10.945,84.3-10.945h77.41A361.043,361.043,0,0,1,2243.5,434c11.75,3.648,20.26,8.107,25.94,13.782,5.27,5.675,8.1,12.567,8.1,21.485l0.41,129.718v0.406A23.14,23.14,0,0,1,2276.73,609.528Zm395.54-27.16L2386.55,369.143V695.061h56.74V488.728L2728.2,696.277v-324.3h-55.93V582.368Zm163.72-154.851h284.5V371.576H2779.25V695.061h341.24V639.12h-284.5V561.289h284.5V505.348h-284.5V427.517Zm672.74,170.661c0-19.458-5.67-36.078-17.02-50.266a141.336,141.336,0,0,0-13.38-13.783,85.134,85.134,0,0,0,17.43-16.62c11.75-15,17.83-32.43,17.83-52.293,0-20.268-6.08-37.7-17.83-52.7-9.32-11.756-22.29-21.079-38.5-27.971-15.81-6.891-36.88-11.35-63.63-12.566H3171.95v323.08h56.73V564.532h162.11c15.4,0.811,25.94,3.243,32.02,6.891,19.05,10.54,28.78,21.08,28.78,30.4v93.235h57.14V598.178ZM3456.85,464c0,12.972-9.72,23.917-28.77,32.835a112.125,112.125,0,0,1-37.29,8.513H3228.68v-81.48h162.11a118.634,118.634,0,0,1,38.1,8.513Q3456.85,444.543,3456.85,464Zm430.8-18.242,16.21,13.378,49.85-29.187-21.48-22.3c-1.62-1.622-3.65-3.649-6.08-6.486q-29.175-29.187-126.45-29.187h-81.86a475.144,475.144,0,0,0-94.84,10.54l-1.21.4-1.62.405c-16.21,6.892-29.18,15.81-38.5,27.566q-17.025,21.282-17.03,51.076c0,22.3,4.87,40.537,15,54.32a86.082,86.082,0,0,0,33.64,28.376h0.4l0.41,0.4c20.67,7.7,45.39,12.972,73.76,15.4l4.46,0.406,6.89,0.81h61.6l60.38,0.406c14.19,0,29.99,2.432,46.21,6.891,20.66,6.891,30.8,16.62,30.8,29.187,0,9.323-2.44,17.025-6.49,22.7-3.24,4.46-8.1,8.108-14.99,10.945-14.59,4.865-32.83,7.3-55.12,7.3H3697.17a139.745,139.745,0,0,1-24.32-2.027c-17.02-2.837-29.58-6.891-38.09-12.972-1.62-1.621-4.87-4.053-8.92-7.3l-17.83-15.81L3566.67,637.9l17.83,18.242c2.03,2.027,4.87,4.864,8.11,8.107,13.78,13.377,35.26,22.7,64.84,27.565a234.29,234.29,0,0,0,39.72,3.243h124.42c30.8,0,57.55-3.243,80.65-10.134l0.81-.4h0.4a83.033,83.033,0,0,0,37.29-28.376c10.54-14.594,15.81-31.619,15.81-51.888,0-24.322-6.08-43.78-17.84-58.373a85.921,85.921,0,0,0-40.12-28.376h-0.4l-2.44-.811a492.926,492.926,0,0,0-95.24-10.539h-18.64l-36.88-.406h-21.48c-28.77.406-51.87-1.621-68.89-5.27-8.11-1.621-15.81-6.891-23.11-16.214a32.512,32.512,0,0,1-8.1-21.89c0-7.7,2.84-13.378,7.7-17.431,4.46-3.649,12.56-7.3,24.72-10.945q26.745-5.474,63.22-6.081h80.65c38.51,0,66.06,4.459,82.28,13.783A38.221,38.221,0,0,1,3887.65,445.758Zm-2361.74,461.9v-47.55a30.014,30.014,0,0,0-1.1-8.131,31.472,31.472,0,0,0-9.37-15.3c-7.03-5.789-17.5-8.821-31.55-8.821H1409.2V938.4h75.65a68.1,68.1,0,0,0,23.84-4,30.737,30.737,0,0,0,12.13-9.648A28.523,28.523,0,0,0,1525.91,907.661Zm-19.29-46.585v45.483a11.2,11.2,0,0,1-1.79,6.753,11.327,11.327,0,0,1-5.65,3.859,41.744,41.744,0,0,1-14.33,2.206h-56.36v-72.5h55.4c7.99,0,13.91,1.378,17.63,3.859a12.366,12.366,0,0,1,4.55,6.754A9.1,9.1,0,0,1,1506.62,861.076Zm235.37,44.105a26.431,26.431,0,0,0-5.78-17.091,49.112,49.112,0,0,0-4.55-4.686,29.225,29.225,0,0,0,5.93-5.651,29.314,29.314,0,0,0,0-35.7,32.577,32.577,0,0,0-13.1-9.51c-5.37-2.343-12.53-3.859-21.63-4.272h-75.37V938.121h19.29v-44.38h55.12c5.23,0.276,8.82,1.1,10.88,2.343,6.48,3.583,9.79,7.167,9.79,10.337v31.7h19.42v-32.94Zm-17.63-45.621c0,4.411-3.31,8.132-9.79,11.164a38.059,38.059,0,0,1-12.67,2.894h-55.12v-27.7h55.12a40.4,40.4,0,0,1,12.95,2.895Q1724.36,852.944,1724.36,859.56ZM1845.08,906.7a29.6,29.6,0,0,0,5.52,17.779,30.488,30.488,0,0,0,12.67,9.786l0.28,0.138h0.14a89.953,89.953,0,0,0,26.31,3.721h41.89c17.5,0,29.63-3.032,36.52-9.1a28.494,28.494,0,0,0,8.68-15.3,29.776,29.776,0,0,0,.69-7.719V860.249c0-7.305-1.93-13.645-5.93-18.744a33.387,33.387,0,0,0-13.78-9.648h-0.13l-0.55-.138-0.28-.138a158.755,158.755,0,0,0-32.52-3.307h-26.32c-22.04,0-36.65,2.894-43.82,8.958a29.777,29.777,0,0,0-8.54,15.161,26.106,26.106,0,0,0-.83,8.132V906.7Zm112.86,2.343a11.375,11.375,0,0,1-4,6.2c-3.99,2.618-11.3,3.859-22.05,3.859h-42.02a64.123,64.123,0,0,1-16.26-2.067c-3.31-1.1-5.51-2.481-6.89-4.135a12.4,12.4,0,0,1-2.21-7.3l0.14-44.518V860.8a11.773,11.773,0,0,1,.55-3.308,12,12,0,0,1,4.41-6.478c4.14-2.481,13.64-3.721,28.66-3.721h26.32a122.793,122.793,0,0,1,22.05,2.067c3.99,1.24,6.89,2.756,8.82,4.686a10.215,10.215,0,0,1,2.75,7.3l0.14,44.1v0.138A7.872,7.872,0,0,1,1957.94,909.04Zm218.56-9.235-97.14-72.5V938.121h19.29V867.967l96.87,70.567V828.274H2176.5v71.531Zm139.74-52.649h96.73v-19.02H2296.95V938.121h116.02V919.1h-96.73V892.638h96.73v-19.02h-96.73V847.156Zm400.74,91.792,12.82-20.812h58.84l12.4,20.812,21.36-.414-63.39-110.26-63.25,110.26Zm42.03-75.667,20.26,35.835h-40.51Zm279.47,41.9a26.439,26.439,0,0,0-5.79-17.091,47.927,47.927,0,0,0-4.55-4.686,28.714,28.714,0,0,0,5.93-5.651,29.314,29.314,0,0,0,0-35.7,32.611,32.611,0,0,0-13.09-9.51c-5.37-2.343-12.54-3.859-21.63-4.272h-75.38V938.121h19.29v-44.38h55.12c5.24,0.276,8.82,1.1,10.89,2.343,6.47,3.583,9.78,7.167,9.78,10.337v31.7h19.43v-32.94Zm-17.64-45.621c0,4.411-3.31,8.132-9.78,11.164a38.12,38.12,0,0,1-12.68,2.894h-55.12v-27.7h55.12a40.278,40.278,0,0,1,12.95,2.895Q3020.84,852.944,3020.84,859.56Zm140.02-12.4h96.73v-19.02H3141.57V938.121h116.02V919.1h-96.73V892.638h96.73v-19.02h-96.73V847.156Zm295.45,52.649-97.15-72.5V938.121h19.3V867.967l96.86,70.567V828.274h-19.01v71.531Zm141.67,39.143,12.82-20.812h58.83l12.4,20.812,21.36-.414-63.38-110.26-63.25,110.26Zm42.03-75.667,20.25,35.835h-40.51Z" transform="translate(-1157.38 -369.156)"/>
</svg>
